<svg xmlns="http://www.w3.org/2000/svg" xmlns:xlink="http://www.w3.org/1999/xlink" width="617.967" height="180.434" viewBox="0 0 617.967 180.434">
  <defs>
    <linearGradient id="linear-gradient" x1="0.5" y1="0.146" x2="0.5" y2="0.717" gradientUnits="objectBoundingBox">
      <stop offset="0" stop-color="#f06724"/>
      <stop offset="0.99" stop-color="#f69320"/>
    </linearGradient>
    <linearGradient id="linear-gradient-2" x1="0.5" y1="-0.159" x2="0.5" y2="0.615" xlink:href="#linear-gradient"/>
    <linearGradient id="linear-gradient-4" x1="0.5" y1="0.365" x2="0.5" y2="1.196" gradientUnits="objectBoundingBox">
      <stop offset="0" stop-color="#f1f1f1"/>
      <stop offset="1" stop-color="#a7a9ac"/>
    </linearGradient>
    <linearGradient id="linear-gradient-5" x1="0.5" y1="0.367" x2="0.5" y2="1.183" xlink:href="#linear-gradient-4"/>
    <linearGradient id="linear-gradient-6" x1="0.5" y1="0.369" x2="0.5" y2="1.19" xlink:href="#linear-gradient-4"/>
  </defs>
  <g id="Grupo_50990" data-name="Grupo 50990" transform="translate(-28.68 -28.37)">
    <g id="Grupo_50994" data-name="Grupo 50994" transform="translate(28.68 28.37)">
      <g id="Grupo_50991" data-name="Grupo 50991" transform="translate(97.223 145.203)">
        <g id="Grupo_50990-2" data-name="Grupo 50990">
          <path id="Trazado_109236" data-name="Trazado 109236" d="M138.879,221.755V201.32h3.988l.6,2.956a8.7,8.7,0,0,1,6.6-2.956q3.851,0,5.276,2.806a9.744,9.744,0,0,1,6.556-2.806q7.041,0,7.041,7.764v12.67h-5.162V208.89q0-3.4-3.079-3.406a6.352,6.352,0,0,0-4.42,2.065v14.205h-5.153v-12.8q0-3.468-2.841-3.467a5.9,5.9,0,0,0-4.262,2.065v14.205H138.87Z" transform="translate(-138.87 -193.926)" fill="#f69320"/>
          <path id="Trazado_109237" data-name="Trazado 109237" d="M175.56,211.53q0-10.27,10.12-10.27t10.12,10.27c0,6.847-3.37,10.253-10.12,10.253S175.586,218.368,175.56,211.53Zm10.12,6.326q4.963,0,4.959-6.406c0-4.27-1.65-6.247-4.959-6.247s-4.959,2.082-4.959,6.247S182.371,217.856,185.68,217.856Z" transform="translate(-143.188 -193.919)" fill="#f69320"/>
          <path id="Trazado_109238" data-name="Trazado 109238" d="M198.35,201.32H203.8l4.959,14.285,5.162-14.285h5.453l-8.311,20.435h-4.906l-7.8-20.435Z" transform="translate(-145.87 -193.926)" fill="#f69320"/>
          <path id="Trazado_109239" data-name="Trazado 109239" d="M228.273,192.94v4.085H223.12V192.94Zm0,7.394v20.435H223.12V200.334Z" transform="translate(-148.785 -192.94)" fill="#f69320"/>
          <path id="Trazado_109240" data-name="Trazado 109240" d="M241.161,201.32q9.3,0,9.3,9.494a18.794,18.794,0,0,1-.176,2.532H236.723q0,4.315,6.344,4.323a33.285,33.285,0,0,0,6.185-.582v4.085a31.748,31.748,0,0,1-6.573.582q-11.117,0-11.108-10.447C231.57,204.346,234.764,201.32,241.161,201.32Zm-4.438,8.453h8.717v-.159c0-2.823-1.429-4.244-4.279-4.244s-4.2,1.465-4.438,4.394Z" transform="translate(-149.779 -193.926)" fill="#f69320"/>
          <path id="Trazado_109241" data-name="Trazado 109241" d="M255.439,220.758v-4.279a21.025,21.025,0,0,0,7.861,1.359q3.322,0,3.326-2.144c0-1.429-.75-2.038-2.241-2.038h-3.7q-6.234,0-6.229-6.132c0-4.085,3.026-6.423,9.088-6.423a22.328,22.328,0,0,1,7.262,1.165v4.279a19.714,19.714,0,0,0-7.394-1.359q-4.182,0-4.182,2.144c0,1.429.812,2.047,2.435,2.047h3.309q6.816,0,6.811,6.132c0,4.094-2.894,6.423-8.682,6.423a23.6,23.6,0,0,1-7.667-1.165Z" transform="translate(-152.473 -193.9)" fill="#f69320"/>
          <path id="Trazado_109242" data-name="Trazado 109242" d="M294.35,201.32H299.8l4.959,14.285,5.162-14.285h5.453l-8.311,20.435h-4.906l-7.8-20.435Z" transform="translate(-157.167 -193.926)" fill="#f69320"/>
          <path id="Trazado_109243" data-name="Trazado 109243" d="M324.283,192.94v4.085H319.13V192.94Zm0,7.394v20.435H319.13V200.334Z" transform="translate(-160.083 -192.94)" fill="#f69320"/>
          <path id="Trazado_109244" data-name="Trazado 109244" d="M346.646,219.542a36.02,36.02,0,0,1-9.167,1.226q-9.913,0-9.908-10.623,0-9.807,9.688-9.811a10.343,10.343,0,0,1,4.226.971V192.94h5.162v26.6Zm-5.162-13.87a7.176,7.176,0,0,0-4.006-1.05q-4.8,0-4.809,5.391,0,6.406,5,6.406a12.488,12.488,0,0,0,3.812-.565Z" transform="translate(-161.076 -192.94)" fill="#f69320"/>
          <path id="Trazado_109245" data-name="Trazado 109245" d="M361.381,201.32q9.3,0,9.3,9.494a18.794,18.794,0,0,1-.176,2.532H356.943q0,4.315,6.344,4.323a33.285,33.285,0,0,0,6.185-.582v4.085a31.748,31.748,0,0,1-6.573.582q-11.117,0-11.108-10.447C351.79,204.346,354.984,201.32,361.381,201.32Zm-4.429,8.453h8.717v-.159c0-2.823-1.429-4.244-4.279-4.244s-4.2,1.465-4.438,4.394Z" transform="translate(-163.927 -193.926)" fill="#f69320"/>
          <path id="Trazado_109246" data-name="Trazado 109246" d="M374.69,211.53q0-10.27,10.12-10.27t10.12,10.27c0,6.847-3.371,10.253-10.12,10.253S374.716,218.368,374.69,211.53Zm10.111,6.326q4.963,0,4.959-6.406c0-4.27-1.65-6.247-4.959-6.247s-4.959,2.082-4.959,6.247S381.493,217.856,384.8,217.856Z" transform="translate(-166.622 -193.919)" fill="#f69320"/>
          <path id="Trazado_109247" data-name="Trazado 109247" d="M419.949,220.758v-4.279a21.025,21.025,0,0,0,7.861,1.359q3.322,0,3.326-2.144c0-1.429-.741-2.038-2.241-2.038h-3.7q-6.234,0-6.229-6.132c0-4.085,3.026-6.423,9.088-6.423a22.328,22.328,0,0,1,7.262,1.165v4.279a19.714,19.714,0,0,0-7.394-1.359c-2.656,0-4.182.715-4.182,2.144s.812,2.047,2.435,2.047h3.309q6.816,0,6.811,6.132c0,4.094-2.894,6.423-8.682,6.423a23.6,23.6,0,0,1-7.667-1.165Z" transform="translate(-171.832 -193.9)" fill="#f69320"/>
          <path id="Trazado_109248" data-name="Trazado 109248" d="M440.55,197.569h3.812l.776,3.309h5.135v4.085H445.7v9.4q0,2.859,2.47,2.859h2.1V221.3h-4.588q-5.135,0-5.135-5.506V197.56Z" transform="translate(-174.372 -193.484)" fill="#f69320"/>
          <path id="Trazado_109249" data-name="Trazado 109249" d="M453.74,221.755V201.32h3.988l.644,2.612a8.115,8.115,0,0,1,5.682-2.612v4.165a6.968,6.968,0,0,0-5.162,2.391v13.879Z" transform="translate(-175.924 -193.926)" fill="#f69320"/>
          <path id="Trazado_109250" data-name="Trazado 109250" d="M475.42,201.32q9.3,0,9.3,9.494a18.789,18.789,0,0,1-.176,2.532H470.982q0,4.315,6.344,4.323a33.285,33.285,0,0,0,6.185-.582v4.085a31.779,31.779,0,0,1-6.582.582q-11.117,0-11.108-10.447c0-6.961,3.194-9.988,9.591-9.988Zm-4.438,8.453H479.7v-.159c0-2.823-1.429-4.244-4.279-4.244s-4.2,1.465-4.438,4.394Z" transform="translate(-177.346 -193.926)" fill="#f69320"/>
          <path id="Trazado_109251" data-name="Trazado 109251" d="M488.73,215.394q0-6.088,8.876-6.088a22.936,22.936,0,0,1,4.165.388v-1.535q0-2.74-3.953-2.744a32.5,32.5,0,0,0-7.429.971V202.3a32.135,32.135,0,0,1,7.429-.971q9.106,0,9.106,6.732v13.7h-3l-1.826-1.826a10.176,10.176,0,0,1-5.876,1.826q-7.491,0-7.491-6.362Zm8.867-2.585q-3.719,0-3.715,2.532,0,2.726,3.115,2.726a7.919,7.919,0,0,0,4.764-1.6V213.2a21.474,21.474,0,0,0-4.165-.388Z" transform="translate(-180.042 -193.927)" fill="#f69320"/>
          <path id="Trazado_109252" data-name="Trazado 109252" d="M513.049,221.755V201.32h3.988l.6,2.956a8.7,8.7,0,0,1,6.6-2.956q3.851,0,5.276,2.806a9.744,9.744,0,0,1,6.556-2.806q7.041,0,7.041,7.764v12.67h-5.153V208.89q0-3.4-3.079-3.406a6.336,6.336,0,0,0-4.42,2.065v14.205H525.3v-12.8q0-3.468-2.841-3.467a5.9,5.9,0,0,0-4.262,2.065v14.205H513.04Z" transform="translate(-182.903 -193.926)" fill="#f69320"/>
          <path id="Trazado_109253" data-name="Trazado 109253" d="M555.993,192.94v4.085H550.84V192.94Zm0,7.394v20.435H550.84V200.334Z" transform="translate(-187.351 -192.94)" fill="#f69320"/>
          <path id="Trazado_109254" data-name="Trazado 109254" d="M560.39,221.755V201.32h3.988l.644,3a9.158,9.158,0,0,1,6.7-3q7.253,0,7.261,7.553v12.882h-5.161V208.873q0-3.388-3.37-3.388a7.618,7.618,0,0,0-4.906,2v14.267Z" transform="translate(-188.475 -193.926)" fill="#f69320"/>
          <path id="Trazado_109255" data-name="Trazado 109255" d="M603.268,220.2q0,8.947-10.764,8.956a21.324,21.324,0,0,1-6.7-.971V224.1a21.493,21.493,0,0,0,6.732.971q5.572,0,5.567-4.667a12.465,12.465,0,0,1-4.941.971q-9.106,0-9.106-9.944c0-6.626,3.538-10.1,10.606-10.1a54.09,54.09,0,0,1,8.6.838v18.043Zm-5.162-14.249a10.931,10.931,0,0,0-3.6-.468q-5.347,0-5.356,5.894c0,3.926,1.535,5.7,4.615,5.7a9.707,9.707,0,0,0,4.341-1.05V205.953Z" transform="translate(-191.26 -193.927)" fill="#f69320"/>
        </g>
        <rect id="Rect치ngulo_28922" data-name="Rect치ngulo 28922" width="1.588" height="25.023" transform="translate(127.53 3.273)" fill="#fff"/>
        <rect id="Rect치ngulo_28923" data-name="Rect치ngulo 28923" width="1.588" height="25.023" transform="translate(236.779 3.273)" fill="#fff"/>
      </g>
      <g id="Grupo_50993" data-name="Grupo 50993">
        <g id="Grupo_50992" data-name="Grupo 50992" transform="translate(329.696)">
          <path id="Trazado_109256" data-name="Trazado 109256" d="M402.35,154.727V28.37h23.417V73.783q10.958-11.845,28.014-11.841,32.955,0,32.955,34.287v58.5H463.318v-58.5q0-15.379-15.282-15.379-11.4,0-22.27,9.106v64.771H402.35Z" transform="translate(-402.35 -28.37)" fill="url(#linear-gradient)"/>
          <path id="Trazado_109257" data-name="Trazado 109257" d="M594.223,66.09v93.076h-18.29l-2.823-11.841q-15.988,11.845-33.934,11.841-28.455,0-28.455-33.66V66.09h23.417v58.8q0,15.379,13.429,15.379,11.4,0,23.24-9.106V66.09h23.417Z" transform="translate(-415.103 -32.809)" fill="url(#linear-gradient-2)"/>
          <path id="Trazado_109258" data-name="Trazado 109258" d="M618.09,28.37h23.417V69.018a41.042,41.042,0,0,1,23.417-7.067q39.585,0,39.581,44.531,0,48.241-45.325,48.245a241.541,241.541,0,0,1-41.09-3.8V28.37Zm23.417,104.881a61.364,61.364,0,0,0,18.643,2.559q21.2,0,21.2-29.955,0-24.471-18.29-24.476A48.227,48.227,0,0,0,641.5,86.153v47.1Z" transform="translate(-427.739 -28.37)" fill="url(#linear-gradient)"/>
        </g>
        <path id="Trazado_109259" data-name="Trazado 109259" d="M237.535,130.94,215,66.09H190.26l35.434,92.776h22.261L285.692,66.09H260.943Z" transform="translate(-47.695 -32.809)" fill="url(#linear-gradient-4)"/>
        <path id="Trazado_109260" data-name="Trazado 109260" d="M348.427,102.642H333.41a14.39,14.39,0,0,1-7.076-1.491q-3.97-2.223-3.97-7.791c0-3.706,1.9-6.123,5.7-7.729q4.712-1.985,13.305-1.985a89.855,89.855,0,0,1,32.54,5.779c.344.132.688.265,1.032.406V70.393a100.793,100.793,0,0,0-32.955-5.3A74.1,74.1,0,0,0,321.3,67.6a33.985,33.985,0,0,0-10.72,5.1,22.9,22.9,0,0,0-7.394,9.026,26.135,26.135,0,0,0-1.853,5.823,34.252,34.252,0,0,0-.618,6.688,42.9,42.9,0,0,0,.724,8.188,25.12,25.12,0,0,0,4.323,10.358,20.863,20.863,0,0,0,9.256,6.961,31.362,31.362,0,0,0,7.014,1.835,46.527,46.527,0,0,0,6.961.485h16.791a13.768,13.768,0,0,1,5.576,1,7.209,7.209,0,0,1,3.441,3.088,10.548,10.548,0,0,1,1.147,5.188,8.365,8.365,0,0,1-2.047,5.841,11.519,11.519,0,0,1-6.141,3.2,31.157,31.157,0,0,1-6.917.679q-5.625,0-10.888-.476a96.739,96.739,0,0,1-12.538-1.941,80.755,80.755,0,0,1-12.264-3.768v19.437q15.458,5.307,34.816,5.3,39.413,0,39.4-29.161a41.531,41.531,0,0,0-.485-6.556,27.673,27.673,0,0,0-2.3-7.659,21.152,21.152,0,0,0-9.476-9.8q-7.213-3.812-18.661-3.812Z" transform="translate(-60.694 -32.691)" fill="url(#linear-gradient-5)"/>
        <path id="Trazado_109261" data-name="Trazado 109261" d="M99.583,79.56c.124-.132.15-.168.309-.344a44.353,44.353,0,0,1,13.332-10.385,36.486,36.486,0,0,1,15.917-3.741c10.923,0,21.29,4.782,29.064,13.3,7.773,8.938,12.035,17.505,12.035,29.761v50.91H147.1v-50.91c0-11.011-8.329-20.779-17.955-20.779S111,96.924,111,108.147v50.91H87.919v-50.91c0-11.223-8.144-20.779-18.14-20.779s-17.955,9.767-17.955,20.779v50.91H28.68v-50.91c0-12.255,4.262-20.823,12.035-29.761,7.773-8.514,18.14-13.3,29.064-13.3A36.458,36.458,0,0,1,85.7,68.831,44.636,44.636,0,0,1,99.027,79.216c.159.176.185.212.309.344l.124.132.124-.132Z" transform="translate(-28.68 -32.691)" fill="url(#linear-gradient-6)"/>
      </g>
    </g>
    <path id="Trazado_109262" data-name="Trazado 109262" d="M716.67,72.04a5.237,5.237,0,0,1,.432-2.126,5.644,5.644,0,0,1,1.173-1.738A5.5,5.5,0,0,1,720.014,67a5.445,5.445,0,0,1,4.253,0,5.507,5.507,0,0,1,2.912,2.912,5.445,5.445,0,0,1,0,4.253,5.507,5.507,0,0,1-2.912,2.912,5.445,5.445,0,0,1-4.253,0,5.645,5.645,0,0,1-1.738-1.173,5.5,5.5,0,0,1-1.173-1.738A5.207,5.207,0,0,1,716.67,72.04Zm.794,0a4.568,4.568,0,0,0,.371,1.826,4.816,4.816,0,0,0,1,1.482,4.665,4.665,0,0,0,1.482,1,4.686,4.686,0,0,0,3.653,0,4.814,4.814,0,0,0,1.482-1,4.666,4.666,0,0,0,1-1.482,4.686,4.686,0,0,0,0-3.653,4.815,4.815,0,0,0-1-1.482,4.664,4.664,0,0,0-1.482-1,4.686,4.686,0,0,0-3.653,0,4.815,4.815,0,0,0-1.482,1,4.666,4.666,0,0,0-1,1.482A4.506,4.506,0,0,0,717.464,72.04Zm3.485,3.132h-.794V68.864h2.426a2.118,2.118,0,0,1,1.526.45,1.76,1.76,0,0,1,.459,1.3,2.081,2.081,0,0,1-.124.75,1.531,1.531,0,0,1-.344.521,1.658,1.658,0,0,1-.512.335,3.477,3.477,0,0,1-.609.185l1.879,2.762h-.9L722.079,72.4h-1.129v2.762Zm0-3.476h1.015a5.242,5.242,0,0,0,.644-.026,1.944,1.944,0,0,0,.582-.132,1.1,1.1,0,0,0,.424-.326,1,1,0,0,0,.159-.609.964.964,0,0,0-.124-.5.938.938,0,0,0-.326-.318,1.414,1.414,0,0,0-.459-.168,2.586,2.586,0,0,0-.512-.053H720.94V71.7Z" transform="translate(-80.963 -4.495)" fill="#f69320"/>
  </g>
</svg>